<svg version="1.1" xmlns="http://www.w3.org/2000/svg" viewBox="-307.2 -1086.7 4763.52890625 1649.9"><desc>Created with Snap</desc><defs></defs><g><g><g transform="matrix(0.5,0,0,-0.5,0,0)"><g transform="matrix(1,0,0,1,0,0)"><path d="M836 1356L836 899Q925 1027 998 1126Q1072 1225 1134 1298Q1196 1372 1249 1422Q1303 1472 1353 1502Q1404 1533 1454 1546Q1504 1559 1559 1559Q1690 1559 1690 1475Q1690 1464 1688 1449Q1686 1434 1680 1420Q1675 1406 1665 1396Q1655 1386 1640 1386Q1629 1386 1614 1397Q1600 1408 1581 1421Q1562 1435 1537 1446Q1512 1458 1481 1458Q1447 1458 1403 1430Q1360 1402 1309 1354Q1259 1306 1204 1242Q1150 1179 1094 1108Q1244 766 1358 515Q1473 264 1567 99Q1662 -65 1742 -145Q1822 -225 1903 -225Q1917 -225 1931 -221Q1945 -217 1956 -212Q1969 -207 1982 -199L2003 -238Q1986 -248 1956 -262Q1927 -276 1886 -289Q1846 -301 1797 -310Q1748 -319 1692 -319Q1615 -319 1549 -295Q1483 -271 1420 -218Q1358 -164 1297 -78Q1237 9 1171 134Q1106 259 1033 425Q960 591 874 805L836 748L836 131Q836 54 795 19Q755 -16 672 -16Q588 -16 548 19Q508 54 508 131L508 1335Q508 1357 503 1370Q498 1383 489 1390Q480 1398 467 1400Q455 1403 440 1403Q418 1403 385 1396Q353 1389 317 1375Q281 1361 244 1340Q208 1320 179 1294Q151 1268 133 1236Q115 1204 115 1167Q115 1135 123 1116Q132 1097 143 1087Q154 1078 165 1075Q177 1073 182 1073Q207 1073 223 1081Q239 1090 252 1099Q265 1109 276 1117Q288 1126 303 1126Q315 1126 328 1120Q342 1115 353 1103Q365 1091 373 1071Q381 1052 381 1024Q381 984 365 955Q350 926 325 906Q301 887 269 877Q238 868 207 868Q159 868 120 884Q82 901 55 930Q28 959 14 998Q0 1037 0 1081Q0 1150 25 1207Q50 1265 93 1311Q137 1357 195 1391Q254 1426 322 1449Q390 1472 464 1483Q538 1495 612 1495Q694 1495 739 1479Q785 1464 806 1442Q828 1420 832 1396Q836 1372 836 1356Z" fill="#000000" style=""></path></g><g transform="matrix(1,0,0,1,1675,0)"><path d="M778 692L383 459Q383 427 392 389Q402 352 420 314Q438 276 464 241Q491 207 525 180Q560 153 602 137Q644 121 694 121Q729 121 759 129Q789 137 815 151Q841 165 865 183Q889 202 913 223L938 199Q915 168 879 131Q843 94 792 61Q741 29 673 7Q605 -14 518 -14Q431 -14 348 17Q266 49 202 112Q138 175 99 269Q61 363 61 489Q61 580 84 656Q107 732 146 793Q186 854 238 900Q291 946 349 976Q407 1007 467 1022Q528 1038 584 1038Q658 1038 713 1022Q768 1006 804 979Q841 952 859 916Q877 881 877 842Q877 795 850 757Q823 720 778 692ZM373 541L584 662Q597 670 605 677Q614 685 619 695Q624 706 626 721Q629 737 629 760Q629 785 623 815Q618 846 605 873Q592 900 572 918Q552 936 524 936Q488 936 462 914Q437 893 420 859Q404 825 394 781Q385 738 380 694Q375 650 374 609Q373 569 373 541Z" fill="#000000" style=""></path></g><g transform="matrix(1,0,0,1,2623,0)"><path d="M778 692L383 459Q383 427 392 389Q402 352 420 314Q438 276 464 241Q491 207 525 180Q560 153 602 137Q644 121 694 121Q729 121 759 129Q789 137 815 151Q841 165 865 183Q889 202 913 223L938 199Q915 168 879 131Q843 94 792 61Q741 29 673 7Q605 -14 518 -14Q431 -14 348 17Q266 49 202 112Q138 175 99 269Q61 363 61 489Q61 580 84 656Q107 732 146 793Q186 854 238 900Q291 946 349 976Q407 1007 467 1022Q528 1038 584 1038Q658 1038 713 1022Q768 1006 804 979Q841 952 859 916Q877 881 877 842Q877 795 850 757Q823 720 778 692ZM373 541L584 662Q597 670 605 677Q614 685 619 695Q624 706 626 721Q629 737 629 760Q629 785 623 815Q618 846 605 873Q592 900 572 918Q552 936 524 936Q488 936 462 914Q437 893 420 859Q404 825 394 781Q385 738 380 694Q375 650 374 609Q373 569 373 541Z" fill="#000000" style=""></path></g><g transform="matrix(1,0,0,1,3571,0)"><path d="M137 -406L137 862Q137 891 123 912Q110 934 78 934Q61 934 49 928Q37 922 23 911L2 936Q25 955 53 973Q82 992 115 1006Q148 1020 186 1029Q224 1038 266 1038Q311 1038 343 1024Q375 1010 396 990Q418 971 429 949Q440 928 442 913Q462 941 489 964Q517 987 549 1003Q582 1020 618 1029Q655 1038 694 1038Q774 1038 839 1005Q904 972 950 907Q997 842 1022 746Q1047 650 1047 524Q1047 378 1016 275Q986 173 936 108Q887 43 823 13Q760 -16 694 -16Q639 -16 597 -5Q556 6 526 22Q496 38 476 54Q456 71 444 82L444 -406Q444 -419 440 -437Q436 -455 420 -472Q405 -488 374 -500Q344 -512 291 -512Q238 -512 207 -500Q177 -487 161 -470Q145 -452 141 -435Q137 -417 137 -406ZM444 782L444 225Q444 217 451 197Q458 177 473 156Q488 135 511 118Q535 102 569 102Q613 102 644 135Q675 169 695 226Q715 284 724 360Q733 437 733 524Q733 631 721 705Q710 779 688 824Q666 870 635 890Q605 911 567 911Q545 911 523 898Q501 886 483 867Q466 849 455 826Q444 803 444 782Z" fill="#000000" style=""></path></g><g transform="matrix(1,0,0,1,4683,0)"><path d="M436 -145Q476 -145 515 -131Q554 -116 584 -83Q615 -49 634 5Q653 59 653 137Q653 221 611 300Q570 379 507 455Q445 532 372 607Q300 683 237 761Q175 840 133 923Q92 1007 92 1098Q92 1189 125 1262Q159 1336 216 1387Q274 1439 350 1467Q427 1495 514 1495Q607 1495 679 1475Q752 1456 802 1422Q853 1389 879 1343Q905 1298 905 1247Q905 1223 898 1197Q891 1172 876 1151Q861 1130 838 1116Q815 1102 784 1102Q747 1102 729 1124Q712 1147 703 1180Q695 1213 689 1252Q683 1292 670 1325Q657 1358 631 1380Q605 1403 555 1403Q528 1403 501 1391Q475 1379 453 1354Q432 1330 419 1292Q406 1254 406 1202Q406 1142 431 1085Q456 1028 497 972Q538 917 590 861Q643 806 697 749Q752 693 804 633Q857 574 898 510Q939 446 964 376Q989 306 989 229Q989 116 945 27Q902 -61 827 -122Q753 -182 653 -214Q553 -246 440 -246Q338 -246 259 -221Q181 -195 127 -153Q73 -111 45 -58Q18 -4 18 53Q18 77 25 104Q33 132 47 155Q62 178 84 193Q106 209 135 209Q165 209 183 194Q202 179 213 154Q224 129 231 97Q238 65 246 32Q254 -1 266 -33Q278 -65 299 -90Q320 -115 353 -130Q386 -145 436 -145Z" fill="#000000" style=""></path></g><g transform="matrix(1,0,0,1,5736,0)"><g transform="matrix(2.6807,0,0,2.6807,-36.5186,1047.1345)"><g transform="matrix(1,0,0,-1,0,0)">
<path d="M362.37,135.36L208.97,6.67c-5.19-4.35-12.74-4.35-17.93,0L37.63,135.36c-5.9,4.95-6.67,13.75-1.72,19.66
	c2.69,3.2,6.51,4.88,10.39,4.97l0,0.01h0.17c0.05,0,0.09,0.01,0.14,0.01c0.03,0,0.06-0.01,0.09-0.01h12.74v29.58h16.45v176.19H59.42
	v30.82h77.47v-30.82h-16.45V189.57h16.45v-29.58h117.68v29.58h16.45v176.19h-16.45v30.82h77.47v-30.82h-16.45V189.57h16.45v-29.58
	h21.14c0.08,0,0.16,0,0.25,0h1.09l-0.02-0.04c3.6-0.28,7.09-1.95,9.59-4.94C369.05,149.11,368.28,140.31,362.37,135.36z
	 M96.94,365.09H89.4v-95.65h7.54V365.09z M296.07,365.09h-7.54v-95.65h7.54V365.09z M200,41.32l91.57,76.82H108.43L200,41.32z" fill="#000000" style=""></path>
<desc>Created with Snap</desc><defs></defs></g></g></g><g transform="matrix(1,0,0,1,6694.2582,0)"><path d="M618 1487Q590 1487 565 1475Q540 1463 521 1436Q503 1410 492 1369Q481 1328 481 1270L481 1024L700 1024L700 952L481 952L481 164Q481 28 445 -87Q410 -202 338 -286Q266 -369 158 -416Q50 -463 -94 -463Q-145 -463 -192 -455Q-239 -446 -275 -431Q-311 -416 -333 -396Q-354 -375 -354 -350Q-354 -332 -349 -314Q-344 -295 -334 -280Q-324 -265 -310 -256Q-295 -246 -276 -246Q-265 -246 -257 -257Q-248 -268 -239 -284Q-230 -300 -219 -320Q-207 -339 -189 -355Q-171 -371 -145 -382Q-118 -393 -80 -393Q-29 -393 10 -373Q49 -352 77 -316Q105 -280 124 -231Q143 -182 154 -126Q165 -70 169 -9Q174 52 174 113L174 952L-10 952L-10 1024L174 1024L174 1141Q174 1229 195 1294Q217 1360 252 1406Q288 1452 333 1481Q378 1510 424 1527Q471 1544 515 1550Q559 1556 592 1556Q663 1556 718 1545Q773 1535 810 1517Q847 1500 866 1477Q885 1454 885 1430Q885 1412 879 1393Q874 1375 864 1359Q854 1344 839 1334Q825 1325 807 1325Q796 1325 787 1337Q778 1349 768 1367Q758 1385 746 1406Q734 1427 716 1445Q699 1463 675 1475Q651 1487 618 1487Z" fill="#000000" style=""></path></g><g transform="matrix(1,0,0,1,7360.2582,0)"><path d="M778 692L383 459Q383 427 392 389Q402 352 420 314Q438 276 464 241Q491 207 525 180Q560 153 602 137Q644 121 694 121Q729 121 759 129Q789 137 815 151Q841 165 865 183Q889 202 913 223L938 199Q915 168 879 131Q843 94 792 61Q741 29 673 7Q605 -14 518 -14Q431 -14 348 17Q266 49 202 112Q138 175 99 269Q61 363 61 489Q61 580 84 656Q107 732 146 793Q186 854 238 900Q291 946 349 976Q407 1007 467 1022Q528 1038 584 1038Q658 1038 713 1022Q768 1006 804 979Q841 952 859 916Q877 881 877 842Q877 795 850 757Q823 720 778 692ZM373 541L584 662Q597 670 605 677Q614 685 619 695Q624 706 626 721Q629 737 629 760Q629 785 623 815Q618 846 605 873Q592 900 572 918Q552 936 524 936Q488 936 462 914Q437 893 420 859Q404 825 394 781Q385 738 380 694Q375 650 374 609Q373 569 373 541Z" fill="#000000" style=""></path></g></g></g></g></svg>